<svg width="60" height="60" viewBox="0 0 60 60" fill="none" xmlns="http://www.w3.org/2000/svg">
<path d="M0 29.9736C0 34.7647 1.12112 39.2936 3.1151 43.312L28.2072 28.7774V9.03892C26.5936 9.31805 23.1753 9.99593 22.4104 10.4744V25.5474L6.33466 34.8185C4.82072 26.5443 7.0757 9.14658 28.2072 5.74918V0C12.4733 0.928166 0 13.993 0 29.9736Z" fill="#B9FF66"/>
<path d="M4.89782 46.4223C10.2576 54.5997 19.4987 60 30 60C40.5013 60 49.7424 54.5997 55.1022 46.4223L49.9004 43.312C36.5139 60.0598 20.2988 53.281 13.8645 47.798L35.5578 35.2372L30 31.9475L4.89782 46.4223Z" fill="#B9FF66"/>
<path d="M31.7928 28.7774L56.8849 43.312C57.7417 41.5854 58.4373 39.7645 58.9521 37.869L37.5299 25.5474V19.5063L59.9108 32.3064C59.9699 31.5365 60 30.7586 60 29.9736C60 28.4699 59.8896 26.9919 59.6763 25.5474L37.5299 12.867V6.94544C39.3626 7.46383 43.5777 9.13462 45.7769 11.6707L57.6777 18.3698C53.3625 8.07115 43.4767 0.689247 31.7928 0V28.7774Z" fill="#B9FF66"/>
</svg>
