<svg width="24" height="24" viewBox="0 0 24 24" fill="none" xmlns="http://www.w3.org/2000/svg">
<path d="M21.5994 21.6005V14.5685C21.5994 11.1125 20.8554 8.47246 16.8234 8.47246C14.8794 8.47246 13.5834 9.52846 13.0554 10.5365H13.0074V8.78446H9.19141V21.6005H13.1754V15.2405C13.1754 13.5605 13.4874 11.9525 15.5514 11.9525C17.5914 11.9525 17.6154 13.8485 17.6154 15.3365V21.5765H21.5994V21.6005Z" fill="black"/>
<path d="M2.71289 8.7844H6.69689V21.6004H2.71289V8.7844Z" fill="black"/>
<path d="M4.70439 2.40047C3.43239 2.40047 2.40039 3.43247 2.40039 4.70447C2.40039 5.97647 3.43239 7.03247 4.70439 7.03247C5.97639 7.03247 7.00839 5.97647 7.00839 4.70447C7.00839 3.43247 5.97639 2.40047 4.70439 2.40047Z" fill="black"/>
</svg>
