<svg width="159" height="22" viewBox="0 0 159 22" fill="none" xmlns="http://www.w3.org/2000/svg">
<path d="M49.0165 11.2612L49.0475 21.0536L44.8623 21.0652L44.8352 12.1641C44.8313 10.2962 43.8199 9.26547 42.3435 9.26934C40.8671 9.27322 39.8634 10.3079 39.8673 12.1796L39.8944 21.0807L35.7093 21.0923L35.6822 12.1912C35.6783 10.3234 34.6669 9.29259 33.1905 9.29647C31.7102 9.30034 30.7104 10.335 30.7143 12.2067L30.7414 21.1078L26.5563 21.1195L26.5098 5.88249L30.4159 5.87086V7.71154C31.1444 6.25837 32.5627 5.52985 34.4034 5.5221C36.3564 5.51435 37.9762 6.32038 38.9566 7.85105C39.8169 6.45213 41.5181 5.49885 43.5835 5.4911C46.765 5.48335 49.0048 7.7348 49.0126 11.2495L49.0165 11.2612Z" fill="black"/>
<path d="M49.3105 17.0118L52.4028 15.5508C53.2166 17.252 54.5884 18.1665 56.3167 18.1627C57.6265 18.1588 58.4635 17.624 58.4596 16.787C58.4596 15.7833 57.2274 15.4811 56.6965 15.3416L54.0149 14.6518C51.2519 13.9349 49.9073 12.319 49.8995 10.2264C49.8918 7.40921 52.3137 5.47552 55.8827 5.4639C59.006 5.45615 61.4977 6.95194 62.482 9.43589L59.3625 10.8968C58.8549 9.58702 57.5412 8.80812 55.8943 8.81587C54.6659 8.81587 53.9413 9.29639 53.9451 10.0792C53.9451 11.0014 55.0108 11.2766 55.5107 11.4122L58.3318 12.1562C61.0405 12.8731 62.4975 14.4309 62.5014 16.6087C62.5091 19.426 59.9787 21.3596 56.3206 21.3713C52.9996 21.3829 50.2599 19.7708 49.3027 17.0118H49.3105Z" fill="black"/>
<path d="M76.999 11.149L77.03 20.9724L72.8449 20.984L72.8178 12.0558C72.8139 10.3275 71.6668 9.18431 70.0199 9.19206C68.373 9.19594 67.2337 10.343 67.2376 12.0751L67.2647 21.0034L63.0796 21.015L63.0176 0.228911L67.2027 0.217285L67.2221 7.16537C68.0552 5.99121 69.5045 5.42932 71.2057 5.42157C74.6391 5.40994 76.9874 7.69239 76.999 11.1529V11.149Z" fill="black"/>
<path d="M77.2968 16.9229L80.3891 15.462C81.2029 17.1631 82.5747 18.0777 84.303 18.0738C85.6128 18.0699 86.4498 17.5352 86.4459 16.6981C86.4459 15.6945 85.2136 15.3922 84.6828 15.2527L82.0012 14.5629C79.2382 13.846 77.8936 12.2301 77.8858 10.1376C77.8781 7.32034 80.3 5.38666 83.869 5.37503C86.9923 5.36728 89.4802 6.86308 90.4644 9.34703L87.345 10.8079C86.8373 9.49816 85.5237 8.71926 83.8767 8.72701C82.6483 8.72701 81.9237 9.20752 81.9275 9.9903C81.9275 10.9126 82.9932 11.1877 83.4931 11.3233L86.3142 12.0674C89.0229 12.7843 90.4799 14.3421 90.4838 16.5199C90.4916 19.3371 87.9572 21.2708 84.303 21.2824C80.982 21.294 78.2423 19.682 77.2852 16.9229H77.2968Z" fill="black"/>
<path d="M92.5529 15.4269L92.5335 9.31584L89.9101 9.32359L89.8984 5.69648H90.0922C91.6539 5.6926 92.518 4.90595 92.5141 3.34428L92.5064 1.11221L96.6915 1.10059L96.707 5.6771L100.28 5.66548L100.292 9.29259L96.7186 9.30421L96.738 15.4153C96.7419 16.9769 97.5828 17.7287 99.3382 17.7248C99.5901 17.7248 99.9234 17.6938 100.315 17.6396L100.326 20.9334C99.7684 21.0187 99.0166 21.0768 98.3733 21.0807C94.692 21.0923 92.5645 19.0075 92.5529 15.4347V15.4269Z" fill="black"/>
<path d="M114.509 5.62277L114.556 20.8559L110.649 20.8675V19.0268C109.867 20.4529 108.363 21.2085 106.464 21.2162C102.977 21.2279 100.597 18.6664 100.586 14.9269L100.559 5.66152L104.744 5.6499L104.771 14.551C104.775 16.3103 105.926 17.4496 107.569 17.4458C109.216 17.4419 110.355 16.2948 110.351 14.5355L110.324 5.6344L114.509 5.62277Z" fill="black"/>
<path d="M131.342 0.015625L131.404 20.8018L127.498 20.8134V19.3641C126.409 20.5383 124.735 21.1583 122.867 21.1621C118.43 21.1777 115.101 17.6707 115.086 13.2337C115.07 8.76952 118.465 5.27029 122.79 5.25866C124.603 5.25479 126.142 5.83605 127.176 6.86296L127.157 0.0272504L131.342 0.015625ZM127.196 13.1988C127.188 10.742 125.591 9.01753 123.332 9.02528C121.046 9.03303 119.403 10.7962 119.411 13.222C119.418 15.6789 121.069 17.4033 123.359 17.3955C125.619 17.3878 127.203 15.6827 127.196 13.1988Z" fill="black"/>
<path d="M132.738 0.0116902L136.923 6.48499e-05L136.935 4.18519L132.75 4.19682L132.738 0.0116902ZM132.754 5.56474L136.939 5.55311L136.985 20.7862L132.8 20.7978L132.754 5.56086V5.56474Z" fill="black"/>
<path d="M137.52 13.1674C137.504 8.56376 141.123 5.20403 145.642 5.18853C150.16 5.17303 153.799 8.51338 153.814 13.117C153.83 17.7207 150.211 21.0804 145.692 21.0959C141.17 21.1114 137.535 17.771 137.52 13.1674ZM149.49 13.1325C149.482 10.7067 147.944 8.95127 145.653 8.95902C143.363 8.96677 141.836 10.7299 141.844 13.1558C141.852 15.6126 143.39 17.337 145.681 17.3293C147.971 17.3215 149.498 15.5855 149.49 13.1325Z" fill="black"/>
<path d="M154.805 16.5468L158.99 16.5352L159.001 20.7203L154.816 20.7319L154.805 16.5468Z" fill="black"/>
<path d="M13.5978 20.6738C12.6406 20.9605 11.6215 21.1194 10.5636 21.1194C4.73152 21.1194 0 16.3995 0 10.5636C0 4.72764 4.73152 0 10.5636 0C11.6215 0 12.6406 0.15888 13.6055 0.445639C9.39329 1.88331 6.37845 5.87081 6.37845 10.5636C6.37845 15.2563 9.39329 19.2361 13.5939 20.6738H13.5978Z" fill="url(#paint0_linear_617_894)"/>
<path d="M13.5978 20.6738C12.6406 20.9605 11.6215 21.1194 10.5636 21.1194C4.73152 21.1194 0 16.3995 0 10.5636C0 4.72764 4.73152 0 10.5636 0C11.6215 0 12.6406 0.15888 13.6055 0.445639C9.39329 1.88331 6.37845 5.87081 6.37845 10.5636C6.37845 15.2563 9.39329 19.2361 13.5939 20.6738H13.5978Z" fill="url(#paint1_linear_617_894)" fill-opacity="0.2"/>
<path d="M21.1193 10.5634C21.1193 14.1518 19.329 17.3255 16.5854 19.2359C13.8961 17.2984 12.1406 14.1363 12.1406 10.5634C12.1406 6.99054 13.8922 3.82069 16.5931 1.89088C19.329 3.80131 21.1193 6.97504 21.1193 10.5634Z" fill="url(#paint2_linear_617_894)"/>
<path d="M21.1193 10.5634C21.1193 14.1518 19.329 17.3255 16.5854 19.2359C13.8961 17.2984 12.1406 14.1363 12.1406 10.5634C12.1406 6.99054 13.8922 3.82069 16.5931 1.89088C19.329 3.80131 21.1193 6.97504 21.1193 10.5634Z" fill="url(#paint3_linear_617_894)" fill-opacity="0.2"/>
<path d="M21.1193 10.5634C21.1193 14.1518 19.329 17.3255 16.5854 19.2359C13.8961 17.2984 12.1406 14.1363 12.1406 10.5634C12.1406 6.99054 13.8922 3.82069 16.5931 1.89088C19.329 3.80131 21.1193 6.97504 21.1193 10.5634Z" fill="url(#paint4_linear_617_894)"/>
<path d="M21.1193 10.5634C21.1193 14.1518 19.329 17.3255 16.5854 19.2359C13.8961 17.2984 12.1406 14.1363 12.1406 10.5634C12.1406 6.99054 13.8922 3.82069 16.5931 1.89088C19.329 3.80131 21.1193 6.97504 21.1193 10.5634Z" fill="url(#paint5_linear_617_894)" fill-opacity="0.2"/>
<path d="M21.1193 10.5634C21.1193 14.1518 19.329 17.3255 16.5854 19.2359C13.8961 17.2984 12.1406 14.1363 12.1406 10.5634C12.1406 6.99054 13.8922 3.82069 16.5931 1.89088C19.329 3.80131 21.1193 6.97504 21.1193 10.5634Z" fill="url(#paint6_linear_617_894)"/>
<path d="M21.1193 10.5634C21.1193 14.1518 19.329 17.3255 16.5854 19.2359C13.8961 17.2984 12.1406 14.1363 12.1406 10.5634C12.1406 6.99054 13.8922 3.82069 16.5931 1.89088C19.329 3.80131 21.1193 6.97504 21.1193 10.5634Z" fill="url(#paint7_linear_617_894)" fill-opacity="0.2"/>
<defs>
<linearGradient id="paint0_linear_617_894" x1="6.80277" y1="0" x2="6.80277" y2="21.1194" gradientUnits="userSpaceOnUse">
<stop stop-color="#E5E4F3"/>
<stop offset="1" stop-color="#8483FF"/>
</linearGradient>
<linearGradient id="paint1_linear_617_894" x1="1.93266" y1="10.5" x2="11.3321" y2="11.1264" gradientUnits="userSpaceOnUse">
<stop stop-color="#A1E3EC"/>
<stop offset="1" stop-color="#94CFDF"/>
</linearGradient>
<linearGradient id="paint2_linear_617_894" x1="16.63" y1="1.89088" x2="16.63" y2="19.2359" gradientUnits="userSpaceOnUse">
<stop stop-color="#E5E4F3"/>
<stop offset="1" stop-color="#8483FF"/>
</linearGradient>
<linearGradient id="paint3_linear_617_894" x1="13.416" y1="10.5144" x2="19.6287" y2="10.8471" gradientUnits="userSpaceOnUse">
<stop stop-color="#A1E3EC"/>
<stop offset="1" stop-color="#94CFDF"/>
</linearGradient>
<linearGradient id="paint4_linear_617_894" x1="16.63" y1="1.89088" x2="16.63" y2="19.2359" gradientUnits="userSpaceOnUse">
<stop stop-color="#E5E4F3"/>
<stop offset="1" stop-color="#8483FF"/>
</linearGradient>
<linearGradient id="paint5_linear_617_894" x1="13.416" y1="10.5144" x2="19.6287" y2="10.8471" gradientUnits="userSpaceOnUse">
<stop stop-color="#A1E3EC"/>
<stop offset="1" stop-color="#94CFDF"/>
</linearGradient>
<linearGradient id="paint6_linear_617_894" x1="16.63" y1="1.89088" x2="16.63" y2="19.2359" gradientUnits="userSpaceOnUse">
<stop stop-color="#E5E4F3"/>
<stop offset="1" stop-color="#8483FF"/>
</linearGradient>
<linearGradient id="paint7_linear_617_894" x1="13.416" y1="10.5144" x2="19.6287" y2="10.8471" gradientUnits="userSpaceOnUse">
<stop stop-color="#A1E3EC"/>
<stop offset="1" stop-color="#94CFDF"/>
</linearGradient>
</defs>
</svg>
