<svg width="172" height="172" viewBox="0 0 172 172" fill="none" xmlns="http://www.w3.org/2000/svg">
<path d="M18.6431 67.9072C28.6017 30.7413 66.8036 8.6854 103.97 18.644C141.135 28.6025 163.191 66.8045 153.233 103.97C143.274 141.136 105.072 163.192 67.9063 153.234C30.7404 143.275 8.68453 105.073 18.6431 67.9072Z" stroke="black"/>
<path d="M60.8975 79.2288C64.6034 65.3985 78.8192 57.191 92.6494 60.8968C106.48 64.6026 114.687 78.8185 110.981 92.6487C107.276 106.479 93.0598 114.687 79.2295 110.981C65.3992 107.275 57.1917 93.0591 60.8975 79.2288Z" stroke="black"/>
<path d="M39.9178 83.5754C40.7832 83.5562 41.4294 82.719 41.5401 81.5678C41.6508 80.4165 41.1729 79.5647 40.4103 79.4912C39.7325 79.4268 39.3122 79.8878 38.9123 81.1125L38.4863 82.4456C37.8932 84.3199 36.8312 85.1695 35.3139 85.0238C33.4001 84.8396 32.2929 83.0647 32.5143 80.7475C32.7459 78.3309 34.1356 76.9323 36.0166 77.0758L35.8223 79.1094C34.9377 79.0969 34.331 79.8166 34.2271 80.9023C34.1231 81.988 34.566 82.7427 35.3365 82.8162C35.976 82.8783 36.3838 82.4083 36.7725 81.2345L37.1588 80.0019C37.8039 77.9683 38.7835 77.1447 40.3663 77.2961C42.3795 77.4893 43.4969 79.2438 43.2495 81.8152C43.0111 84.3109 41.6678 85.7875 39.7155 85.6655L39.9178 83.5754Z" fill="black"/>
<path d="M38.431 76.0655C35.2236 75.0646 33.8554 72.631 34.7559 69.7467C35.5027 67.3527 37.5894 66.006 39.867 66.5426L39.2343 68.5762C37.952 68.3887 36.8618 69.0767 36.4799 70.2912C35.9896 71.8639 36.9906 73.2897 39.0875 73.9438C41.2126 74.607 42.8361 74.0161 43.3332 72.422C43.7184 71.1872 43.2722 70.0709 42.1616 69.4846L42.7943 67.451C44.9408 68.3785 45.8175 70.5217 45.0538 72.9643C44.1511 75.8599 41.6498 77.0688 38.431 76.0655Z" fill="black"/>
<path d="M47.5254 66.403L46.4578 68.3067L37.3574 63.2034L39.4453 59.4752C40.6191 57.3828 42.394 56.8032 44.1903 57.8099C45.3563 58.464 46.0262 59.6345 45.8488 60.9111L50.5363 61.0241L49.3274 63.1797L45.0467 63.0136L44.1915 64.5388L47.5254 66.403ZM42.8109 63.7593L43.7305 62.12C44.2671 61.1619 44.0333 60.2931 43.1317 59.7881C42.2494 59.2933 41.3489 59.5622 40.8191 60.5134L39.9152 62.1335L42.8109 63.7593Z" fill="black"/>
<path d="M53.0883 50.2222C55.5738 52.4185 55.8404 55.2486 53.7978 57.5658C51.7551 59.883 48.9126 59.9609 46.4271 57.7646C43.9416 55.5684 43.6648 52.7383 45.7131 50.4211C47.7613 48.1039 50.5982 48.0203 53.0883 50.2222ZM47.9014 56.0971C49.5362 57.5421 51.2908 57.6392 52.4273 56.3558C53.5639 55.0724 53.2453 53.3461 51.6094 51.9C49.9735 50.4538 48.2031 50.3431 47.0733 51.622C45.9435 52.9009 46.2599 54.6408 47.9014 56.0914V56.0971Z" fill="black"/>
<path d="M62.7767 49.4559L57.408 53.5321L51.1016 45.2294L52.8392 43.9098L58.0531 50.7743L61.6842 48.0165L62.7767 49.4559Z" fill="black"/>
<path d="M69.1407 46.1199L63.1698 49.2528L58.3242 40.0191L60.2573 39.0023L64.2635 46.6363L68.3013 44.5179L69.1407 46.1199Z" fill="black"/>
<path d="M73.3548 33.9461C76.4052 33.231 78.6207 34.624 79.3776 37.8473C80.1346 41.0705 78.7845 43.3832 75.7375 44.0983L71.8612 45.0022L69.4785 34.85L73.3548 33.9461ZM73.5728 42.7505L75.0721 42.3992C76.9712 41.9529 77.727 40.5576 77.2119 38.3625C76.7136 36.2385 75.3839 35.3177 73.513 35.7572L72.0137 36.1085L73.5728 42.7505Z" fill="black"/>
<path d="M90.5467 37.5934C90.6009 40.9093 88.6905 43.0163 85.6062 43.0638C82.5219 43.1112 80.5436 41.072 80.4894 37.7538C80.4352 34.4357 82.3389 32.3252 85.4311 32.2755C88.5233 32.2258 90.4925 34.273 90.5467 37.5934ZM82.7151 37.7199C82.7501 39.9015 83.8641 41.2641 85.5757 41.2358C87.2873 41.2076 88.3493 39.8112 88.3143 37.6296C88.2792 35.4479 87.1653 34.0707 85.4604 34.0979C83.7556 34.125 82.68 35.5338 82.7151 37.7233V37.7199Z" fill="black"/>
<path d="M94.5245 43.6945L92.527 43.1929L92.3926 32.4046L94.5855 32.9571L94.3358 40.6814L94.3923 40.695L98.1206 33.8462L99.9079 34.2981L99.9587 42.0936L100.015 42.1083L103.454 35.185L105.648 35.7364L100.421 45.1757L98.4233 44.674L98.2403 37.2796L98.177 37.2638L94.5245 43.6945Z" fill="black"/>
<path d="M102.883 46.1007L107.933 36.9766L109.526 37.859L110.499 46.1617L110.549 46.1888L113.842 40.245L115.669 41.2562L110.618 50.3814L109.037 49.5058L108.075 41.1681L108.019 41.1376L104.712 47.113L102.883 46.1007Z" fill="black"/>
<path d="M116.252 49.387L117.495 48.0313L120.997 51.241L119.754 52.5967L116.252 49.387Z" fill="black"/>
<path d="M122.655 58.1067C122.004 58.6784 122.049 59.7358 122.707 60.6882C123.364 61.6406 124.277 61.983 124.908 61.548C125.473 61.1616 125.493 60.538 125.01 59.3427L124.483 58.057C123.729 56.2403 123.994 54.9072 125.249 54.0406C126.831 52.9481 128.822 53.5887 130.144 55.5093C131.525 57.5079 131.362 59.4737 129.83 60.5753L128.668 58.8919C129.352 58.327 129.353 57.3915 128.733 56.4934C128.113 55.5952 127.288 55.3037 126.652 55.7432C126.122 56.1081 126.113 56.7306 126.568 57.874L127.067 59.0659C127.885 61.0396 127.665 62.2982 126.356 63.202C124.691 64.351 122.706 63.7285 121.236 61.5988C119.811 59.5347 119.88 57.5429 121.462 56.377L122.655 58.1067Z" fill="black"/>
<path d="M128.633 62.901C131.73 61.5984 134.345 62.5779 135.515 65.3628C136.487 67.6755 135.759 70.0503 133.671 71.1078L132.849 69.1487C133.949 68.4708 134.343 67.236 133.849 66.0633C133.21 64.5437 131.527 64.0986 129.501 64.9505C127.449 65.8125 126.589 67.3106 127.242 68.8493C127.742 70.0424 128.803 70.6073 130.032 70.3418L130.855 72.3008C128.615 72.9787 126.562 71.902 125.573 69.543C124.391 66.7423 125.527 64.2025 128.633 62.901Z" fill="black"/>
<path d="M127.914 76.1452L127.504 73.9986L137.745 72.0385L138.549 76.2334C139.001 78.5889 138.015 80.1752 135.992 80.5627C134.679 80.8135 133.414 80.3503 132.727 79.26L129.073 82.1975L128.609 79.7696L131.99 77.144L131.661 75.4256L127.914 76.1452ZM133.216 75.1284L133.569 76.9734C133.775 78.0523 134.514 78.5663 135.529 78.372C136.523 78.1822 137.034 77.3925 136.829 76.3271L136.481 74.5037L133.216 75.1284Z" fill="black"/>
<path d="M134.081 92.1048C130.764 92.0291 128.736 90.0373 128.806 86.953C128.876 83.8687 130.995 81.9718 134.312 82.0475C137.629 82.1232 139.664 84.1071 139.594 87.1993C139.524 90.2915 137.404 92.1805 134.081 92.1048ZM134.261 84.2731C132.078 84.2223 130.674 85.282 130.634 86.9948C130.595 88.7075 131.951 89.8192 134.137 89.8723C136.323 89.9254 137.738 88.8634 137.777 87.1609C137.815 85.4583 136.449 84.3228 134.261 84.2731Z" fill="black"/>
<path d="M127.164 98.9343L128.642 92.3556L138.817 94.6422L138.339 96.7707L129.926 94.8817L128.927 99.3308L127.164 98.9343Z" fill="black"/>
<path d="M124.445 105.578L127.001 99.3377L136.65 103.292L135.823 105.311L127.845 102.044L126.116 106.263L124.445 105.578Z" fill="black"/>
<path d="M129.057 117.605C127.189 120.114 124.593 120.478 121.94 118.501C119.287 116.524 118.827 113.885 120.697 111.375L123.076 108.182L131.437 114.411L129.057 117.605ZM123.219 111.012L122.299 112.247C121.134 113.811 121.454 115.365 123.263 116.711C125.013 118.015 126.623 117.863 127.771 116.321L128.69 115.087L123.219 111.012Z" fill="black"/>
<path d="M113.54 125.87C111.38 123.353 111.507 120.514 113.846 118.504C116.186 116.494 119.014 116.801 121.174 119.318C123.334 121.836 123.22 124.677 120.873 126.69C118.525 128.703 115.706 128.393 113.54 125.87ZM119.491 120.768C118.07 119.113 116.342 118.776 115.043 119.891C113.744 121.006 113.819 122.76 115.241 124.41C116.662 126.061 118.404 126.413 119.693 125.303C120.982 124.192 120.911 122.43 119.491 120.768Z" fill="black"/>
<path d="M106.595 123.796L108.447 122.892L115.5 131.054L113.467 132.046L108.681 125.977L108.629 126.003L110.186 133.646L108.53 134.454L103.465 128.521L103.413 128.547L105.243 136.057L103.209 137.049L101.125 126.463L102.977 125.559L107.881 131.095L107.939 131.067L106.595 123.796Z" fill="black"/>
<path d="M98.6515 127.342L100.669 137.573L98.882 137.926L92.7891 132.202L92.7326 132.213L94.0465 138.879L91.9971 139.282L89.9805 129.051L91.7531 128.702L97.8539 134.464L97.9183 134.452L96.5964 127.751L98.6515 127.342Z" fill="black"/>
<path d="M86.3121 133.438L86.2353 135.28L81.4902 135.082L81.5671 133.241L86.3121 133.438Z" fill="black"/>
<path d="M75.7898 130.914C75.9197 130.057 75.2034 129.276 74.0883 128.971C72.9732 128.666 72.0547 128.993 71.8502 129.732C71.6706 130.387 72.0524 130.881 73.1913 131.484L74.4238 132.128C76.1705 133.032 76.8258 134.223 76.4247 135.694C75.9174 137.549 73.9787 138.337 71.7338 137.727C69.3918 137.087 68.2496 135.479 68.7128 133.65L70.6854 134.189C70.5227 135.059 71.1283 135.778 72.1801 136.066C73.2319 136.355 74.051 136.045 74.2555 135.299C74.425 134.679 74.0296 134.197 72.9472 133.616L71.7982 133.025C69.9013 132.042 69.2585 130.937 69.6776 129.41C70.2109 127.458 72.1315 126.655 74.6272 127.338C77.0461 127.999 78.2719 129.57 77.8188 131.476L75.7898 130.914Z" fill="black"/>
<path d="M68.1388 131.091C66.6045 134.081 63.9733 135.013 61.2855 133.634C59.0542 132.489 58.0826 130.204 59 128.05L60.8901 129.021C60.4868 130.251 60.9782 131.445 62.1103 132.026C63.579 132.778 65.1516 132.035 66.1549 130.081C67.1717 128.1 66.8655 126.4 65.3799 125.638C64.2286 125.047 63.0525 125.299 62.2831 126.291L60.393 125.321C61.6742 123.363 63.9349 122.866 66.2114 124.034C68.9116 125.419 69.6764 128.094 68.1388 131.091Z" fill="black"/>
<path d="M60.1554 120.484L61.8501 121.859L55.2849 129.961L51.9668 127.272C50.1026 125.761 49.8326 123.914 51.1285 122.314C51.9702 121.276 53.2378 120.814 54.4647 121.204L55.3685 116.604L57.2892 118.16L56.3966 122.348L57.7524 123.449L60.1554 120.484ZM56.757 124.679L55.2974 123.496C54.4444 122.805 53.5485 122.888 52.8977 123.691C52.2605 124.482 52.3791 125.41 53.222 126.092L54.6647 127.262L56.757 124.679Z" fill="black"/>
<path d="M45.1531 112.263C47.7381 110.184 50.5761 110.398 52.5069 112.802C54.4377 115.207 54.0445 118.021 51.4596 120.101C48.8746 122.181 46.0366 121.976 44.1002 119.566C42.1637 117.157 42.5603 114.348 45.1531 112.263ZM50.0643 118.364C51.759 116.996 52.1555 115.281 51.0811 113.946C50.0067 112.61 48.2566 112.633 46.5518 114.001C44.847 115.369 44.4493 117.093 45.5181 118.422C46.5868 119.751 48.3549 119.739 50.0609 118.367L50.0643 118.364Z" fill="black"/>
<path d="M46.0413 102.581L49.1493 108.569L39.8953 113.375L38.8887 111.438L46.5395 107.465L44.4381 103.418L46.0413 102.581Z" fill="black"/>
<path d="M43.8381 95.7463L45.9045 102.163L35.9794 105.361L35.3105 103.283L43.5161 100.64L42.1186 96.2999L43.8381 95.7463Z" fill="black"/>
<path d="M39.5999 96.4152L37.7844 96.7281L36.9766 92.0486L38.7921 91.7356L39.5999 96.4152Z" fill="black"/>
<path d="M89.625 91.0686L81.3815 91.7541L80.696 83.5105" stroke="black" stroke-miterlimit="10" stroke-linecap="round" stroke-linejoin="round"/>
<path d="M91.9648 79.2502L81.4869 91.6287" stroke="black" stroke-miterlimit="10" stroke-linecap="round" stroke-linejoin="round"/>
</svg>
