<svg width="24" height="24" viewBox="0 0 24 24" fill="none" xmlns="http://www.w3.org/2000/svg">
<path d="M21.9803 11.41C21.6403 5.61001 16.3703 1.14002 10.3003 2.14002C6.12029 2.83002 2.77029 6.22 2.12029 10.4C1.74029 12.82 2.24031 15.11 3.33031 17L2.4403 20.31C2.2403 21.06 2.93028 21.74 3.67028 21.53L6.93029 20.63C8.41029 21.5 10.1403 22 11.9903 22C17.6303 22 22.3103 17.03 21.9803 11.41ZM16.8803 15.72C16.7903 15.9 16.6803 16.07 16.5403 16.23C16.2903 16.5 16.0203 16.7 15.7203 16.82C15.4203 16.95 15.0903 17.01 14.7403 17.01C14.2303 17.01 13.6803 16.89 13.1103 16.64C12.5303 16.39 11.9603 16.06 11.3903 15.65C10.8103 15.23 10.2703 14.76 9.7503 14.25C9.2303 13.73 8.77027 13.18 8.35027 12.61C7.94027 12.04 7.61029 11.47 7.37029 10.9C7.13029 10.33 7.01031 9.78002 7.01031 9.26002C7.01031 8.92002 7.0703 8.59002 7.1903 8.29002C7.3103 7.98002 7.50032 7.70002 7.77032 7.45002C8.09032 7.13002 8.44029 6.98002 8.81029 6.98002C8.95029 6.98002 9.09027 7.01002 9.22027 7.07002C9.35027 7.13002 9.47029 7.22001 9.56029 7.35001L10.7203 8.99C10.8103 9.12 10.8803 9.23 10.9203 9.34C10.9703 9.45 10.9903 9.55 10.9903 9.65C10.9903 9.77 10.9503 9.89002 10.8803 10.01C10.8103 10.13 10.7203 10.25 10.6003 10.37L10.2203 10.77C10.1603 10.83 10.1403 10.89 10.1403 10.97C10.1403 11.01 10.1503 11.05 10.1603 11.09C10.1803 11.13 10.1903 11.16 10.2003 11.19C10.2903 11.36 10.4503 11.57 10.6703 11.83C10.9003 12.09 11.1403 12.36 11.4003 12.62C11.6703 12.89 11.9303 13.13 12.2003 13.36C12.4603 13.58 12.6803 13.73 12.8503 13.82C12.8803 13.83 12.9103 13.85 12.9403 13.86C12.9803 13.88 13.0203 13.88 13.0703 13.88C13.1603 13.88 13.2203 13.85 13.2803 13.79L13.6603 13.41C13.7903 13.28 13.9103 13.19 14.0203 13.13C14.1403 13.06 14.2503 13.02 14.3803 13.02C14.4803 13.02 14.5803 13.04 14.6903 13.09C14.8003 13.14 14.9203 13.2 15.0403 13.29L16.7003 14.47C16.8303 14.56 16.9203 14.67 16.9803 14.79C17.0303 14.92 17.0603 15.04 17.0603 15.18C17.0003 15.35 16.9603 15.54 16.8803 15.72Z" fill="black"/>
</svg>
